<?xml version="1.0" standalone="no"?>
<!DOCTYPE svg PUBLIC "-//W3C//DTD SVG 20010904//EN"
 "http://www.w3.org/TR/2001/REC-SVG-20010904/DTD/svg10.dtd">
<svg version="1.0" xmlns="http://www.w3.org/2000/svg"
 width="500.000000pt" height="500.000000pt" viewBox="0 0 500.000000 500.000000"
 preserveAspectRatio="xMidYMid meet">
<metadata>
Created by potrace 1.14, written by Peter Selinger 2001-2017
</metadata>
<g transform="translate(0.000000,500.000000) scale(0.100000,-0.100000)"
fill="#000000" stroke="none">
<path d="M2315 4500 c-225 -225 -273 -268 -291 -264 -25 6 -47 -20 -59 -67 -4
-15 -68 -88 -153 -173 -157 -157 -152 -154 -218 -116 -53 30 -143 60 -182 60
-44 0 -138 -43 -155 -71 -17 -27 -42 -24 -66 7 -30 38 -27 61 26 192 40 102
46 126 46 192 0 57 -5 85 -21 116 -38 74 -107 115 -140 82 -20 -20 -14 -46 18
-69 31 -24 60 -83 60 -125 0 -40 -37 -182 -65 -251 -14 -35 -25 -72 -25 -83 0
-32 36 -95 71 -124 31 -26 31 -29 20 -65 -16 -54 -13 -175 5 -246 29 -110 53
-77 -319 -445 -202 -200 -337 -327 -337 -317 0 10 -11 29 -25 43 -14 14 -25
29 -25 34 0 5 -7 7 -15 4 -22 -9 -44 44 -24 57 12 9 12 10 -1 6 -17 -4 -25
-50 -14 -75 4 -10 7 -20 6 -24 -1 -4 5 -5 13 -2 12 5 15 -2 15 -28 0 -19 7
-43 14 -54 14 -18 9 -25 -70 -104 l-84 -85 450 -450 450 -450 -58 -62 c-72
-75 -92 -128 -92 -242 0 -69 4 -90 30 -145 54 -115 148 -178 265 -180 71 -1
114 13 178 57 15 10 36 17 46 14 16 -4 20 5 29 60 6 36 14 68 17 71 3 3 221
-209 483 -471 l477 -477 390 391 c264 265 407 400 443 421 55 32 102 81 128
136 8 18 36 52 61 75 71 64 162 161 157 166 -3 3 -46 -35 -95 -85 l-91 -89 5
41 c17 145 -70 290 -209 345 -54 21 -77 24 -263 27 -143 2 -201 0 -196 -7 3
-6 19 -11 35 -11 60 0 60 -1 55 -327 -2 -163 -8 -300 -12 -304 -5 -4 -26 -9
-47 -11 -22 -2 -41 -9 -44 -17 -4 -11 27 -13 184 -8 104 3 200 8 214 12 15 5
-116 -134 -345 -364 l-370 -371 -652 652 c-359 359 -653 656 -653 660 0 4 20
19 44 33 40 24 47 25 96 14 39 -8 65 -22 96 -51 24 -22 44 -46 44 -54 0 -21
45 -68 58 -60 15 9 16 182 2 191 -5 3 -15 -5 -22 -19 -13 -30 -21 -32 -38 -11
-35 42 -193 58 -284 30 l-58 -18 -444 444 -444 444 417 417 418 418 26 -53
c15 -28 23 -53 18 -55 -5 -2 -9 -8 -9 -14 0 -6 7 -8 14 -5 16 6 20 -3 31 -65
8 -48 27 -58 108 -58 71 0 93 14 82 50 -9 28 -45 60 -67 60 -20 0 -48 53 -48
90 0 37 29 79 73 103 37 22 58 25 182 31 77 3 157 10 178 15 l39 9 -7 -48 c-8
-59 8 -140 46 -238 16 -40 29 -84 29 -97 0 -46 32 -65 109 -65 84 0 99 12 78
62 -10 23 -26 39 -47 48 l-32 13 6 66 c4 36 10 83 13 104 l6 38 27 -68 c15
-37 31 -87 35 -111 10 -58 35 -74 115 -70 46 2 66 8 74 20 16 27 -4 71 -41 88
-39 18 -40 33 -18 185 8 55 14 114 15 130 l0 30 -19 -30 c-32 -51 -145 -145
-175 -145 -4 0 -4 19 -1 43 4 28 1 54 -9 80 -16 37 -16 37 17 86 19 27 40 70
47 96 l13 47 53 -7 c29 -3 55 -2 58 3 3 5 -17 12 -44 15 -61 7 -192 67 -212
96 -17 24 -14 54 7 71 9 8 30 7 74 -3 52 -12 70 -10 59 6 -2 2 3 12 11 21 13
15 13 19 0 28 -10 6 7 8 53 5 71 -5 183 -48 143 -55 -26 -5 -31 -11 -39 -44
-5 -24 -2 -28 32 -38 54 -18 103 -50 95 -63 -4 -7 0 -8 11 -4 10 4 27 2 39 -4
22 -12 22 -11 4 9 -27 30 -3 37 41 12 28 -17 32 -17 16 -3 -12 10 -30 23 -40
29 -38 23 -2 27 42 5 26 -12 48 -20 51 -17 3 2 -18 15 -46 28 -28 12 -51 29
-51 35 0 17 4 17 51 -8 23 -11 39 -16 36 -11 -4 4 -24 17 -46 26 -32 15 -41
25 -49 59 -9 35 -8 46 13 81 29 52 46 113 39 143 -6 21 -12 23 -63 23 -39 0
-66 -6 -89 -20 -24 -15 -38 -18 -46 -11 -7 6 -42 17 -78 26 -51 12 -74 23
-102 51 l-37 37 260 261 261 261 399 -399 c220 -220 398 -404 395 -408 -3 -5
-26 -19 -52 -32 -42 -21 -65 -24 -207 -28 -136 -5 -168 -9 -212 -27 l-51 -23
49 -146 c27 -81 48 -151 46 -156 -3 -10 -99 -37 -106 -30 -3 3 -17 73 -31 157
l-26 152 -48 -2 c-28 -1 -69 -12 -101 -28 -98 -48 -275 -217 -275 -264 0 -9
45 -93 100 -187 l101 -169 -38 -5 c-21 -3 -47 -11 -57 -17 -16 -9 -11 -10 25
-6 57 6 106 -25 134 -84 l20 -43 70 3 c70 2 70 2 87 38 18 39 61 79 84 79 7 0
18 9 24 20 10 18 8 20 -24 20 -26 0 -45 10 -85 46 -28 25 -50 48 -49 52 1 4
-3 16 -9 27 -16 28 -6 67 26 106 l28 32 44 -21 c25 -12 53 -22 62 -22 30 0 21
-55 -15 -96 -30 -34 -35 -36 -76 -31 -28 3 -39 2 -31 -4 22 -14 69 -10 100 8
16 10 29 20 29 23 0 3 7 13 14 23 12 16 16 16 49 2 56 -23 83 -19 128 22 l40
36 -6 -29 c-4 -16 -11 -42 -16 -58 -9 -28 -8 -28 9 -13 33 30 44 20 23 -22
-26 -51 -73 -89 -127 -103 l-43 -12 30 -18 c37 -23 71 -76 66 -105 -4 -22 -1
-23 67 -23 117 0 161 42 255 244 27 58 56 106 63 106 32 0 122 54 223 133 61
48 115 87 121 87 7 0 19 -12 29 -26 9 -14 32 -43 51 -64 l35 -38 -70 -44 c-68
-42 -70 -44 -71 -84 0 -23 -6 -59 -14 -81 l-14 -40 34 -12 c18 -6 44 -25 58
-41 30 -36 36 -37 36 -6 0 13 13 55 29 92 16 38 35 88 42 112 l12 43 45 -43
c42 -42 44 -45 39 -93 -3 -27 -8 -60 -12 -72 -6 -18 -2 -23 19 -29 14 -3 41
-23 60 -44 l34 -38 6 42 c4 22 10 46 14 53 5 8 119 -99 337 -317 l330 -330
-385 -385 c-212 -212 -380 -385 -375 -385 12 0 775 762 775 774 0 4 -150 158
-332 342 -183 184 -333 338 -333 342 1 4 16 54 34 112 33 104 33 105 15 138
-15 29 -16 38 -5 65 51 126 73 312 48 405 -12 45 -12 61 -1 110 38 160 -8 299
-137 417 -31 28 -79 63 -107 78 l-52 28 -11 -28 c-6 -15 -19 -38 -30 -49 l-20
-22 33 -20 c18 -11 49 -38 69 -59 37 -39 91 -114 85 -120 -1 -2 -29 6 -62 18
-83 29 -210 29 -282 0 -103 -41 -163 -90 -329 -267 -12 -13 -26 -24 -30 -24
-4 0 -188 180 -408 400 -220 220 -404 400 -410 400 -6 0 -131 -121 -280 -270z
m-231 -332 l25 -23 -55 -26 -54 -26 0 29 c0 66 38 87 84 46z m-124 -92 c0 -43
-20 -60 -61 -51 l-31 7 38 39 c21 21 42 39 46 39 4 0 8 -15 8 -34z m470 2 c-1
-18 -6 -43 -13 -56 -12 -22 -13 -21 -50 27 -39 54 -37 59 26 60 35 1 37 0 37
-31z m-520 -67 c18 -5 21 -9 12 -15 -17 -10 -84 2 -77 15 7 10 28 10 65 0z
m-23 -31 c31 0 26 -22 -8 -31 -23 -7 -23 -7 -1 -8 12 -1 22 -6 22 -11 0 -6
-10 -15 -22 -20 l-23 -9 23 0 c34 -1 31 -48 -5 -62 -36 -14 -121 -13 -159 1
l-29 11 73 71 c49 48 77 68 88 64 8 -3 27 -6 41 -6z m143 -70 c13 -9 13 -10 0
-9 -8 1 -26 5 -40 9 l-25 8 25 1 c14 0 32 -4 40 -9z m298 -47 c-10 -2 -26 -2
-35 0 -10 3 -2 5 17 5 19 0 27 -2 18 -5z m36 -32 c4 -5 -3 -7 -14 -4 -23 6
-26 13 -6 13 8 0 17 -4 20 -9z m-9 -21 c14 -5 25 -14 25 -20 0 -6 -17 -2 -37
8 -21 11 -45 22 -53 26 -23 9 35 -3 65 -14z m734 -336 c45 -18 69 -60 53 -91
-35 -64 -107 -86 -159 -47 -49 37 -50 48 -10 83 20 18 39 41 42 52 8 23 22 24
74 3z m939 -112 c33 -43 24 -41 -19 4 -18 20 -28 35 -20 32 8 -2 25 -18 39
-36z m-3518 -649 c0 -7 -4 -13 -8 -13 -15 0 -32 24 -32 44 0 18 1 19 20 1 11
-10 20 -24 20 -32z m2809 -1107 c137 -70 197 -261 130 -415 -53 -123 -132
-179 -259 -184 l-65 -2 -5 125 c-3 69 -3 209 -1 312 3 163 5 188 20 192 35 11
133 -5 180 -28z m-1865 -235 c138 -138 177 -183 169 -193 -6 -7 -14 -24 -18
-38 -4 -14 -22 -43 -41 -66 -77 -96 -245 -81 -329 30 -53 69 -70 211 -39 328
15 61 49 118 68 118 6 0 92 -81 190 -179z"/>
<path d="M1820 3950 c0 -5 7 -10 16 -10 8 0 12 5 9 10 -3 6 -10 10 -16 10 -5
0 -9 -4 -9 -10z"/>
<path d="M1855 3860 c3 -5 8 -10 11 -10 2 0 4 5 4 10 0 6 -5 10 -11 10 -5 0
-7 -4 -4 -10z"/>
<path d="M3210 1029 c0 -5 5 -7 10 -4 6 3 10 8 10 11 0 2 -4 4 -10 4 -5 0 -10
-5 -10 -11z"/>
<path d="M2610 4569 c0 -5 5 -7 10 -4 6 3 10 8 10 11 0 2 -4 4 -10 4 -5 0 -10
-5 -10 -11z"/>
<path d="M2550 4560 c0 -5 5 -10 10 -10 6 0 10 5 10 10 0 6 -4 10 -10 10 -5 0
-10 -4 -10 -10z"/>
<path d="M2670 4509 c0 -5 5 -7 10 -4 6 3 10 8 10 11 0 2 -4 4 -10 4 -5 0 -10
-5 -10 -11z"/>
<path d="M2845 4340 c-3 -5 -1 -10 4 -10 6 0 11 5 11 10 0 6 -2 10 -4 10 -3 0
-8 -4 -11 -10z"/>
<path d="M2900 4280 c0 -5 5 -10 10 -10 6 0 10 5 10 10 0 6 -4 10 -10 10 -5 0
-10 -4 -10 -10z"/>
<path d="M2260 4269 c0 -5 5 -7 10 -4 6 3 10 8 10 11 0 2 -4 4 -10 4 -5 0 -10
-5 -10 -11z"/>
<path d="M2960 4219 c0 -5 5 -7 10 -4 6 3 10 8 10 11 0 2 -4 4 -10 4 -5 0 -10
-5 -10 -11z"/>
<path d="M2200 4210 c0 -5 5 -10 10 -10 6 0 10 5 10 10 0 6 -4 10 -10 10 -5 0
-10 -4 -10 -10z"/>
<path d="M3081 4104 c0 -11 3 -14 6 -6 3 7 2 16 -1 19 -3 4 -6 -2 -5 -13z"/>
<path d="M3195 3990 c-3 -5 -1 -10 4 -10 6 0 11 5 11 10 0 6 -2 10 -4 10 -3 0
-8 -4 -11 -10z"/>
<path d="M3250 3930 c0 -5 5 -10 10 -10 6 0 10 5 10 10 0 6 -4 10 -10 10 -5 0
-10 -4 -10 -10z"/>
<path d="M2120 3910 c-22 -22 -18 -45 12 -61 12 -6 18 -19 16 -32 -4 -30 -31
-28 -38 3 -5 21 -7 22 -13 8 -8 -23 1 -48 19 -48 8 0 14 -9 14 -20 0 -11 6
-20 13 -19 24 1 72 36 75 55 3 18 2 18 -11 2 -20 -26 -37 -22 -37 7 0 17 5 25
18 25 60 0 68 69 11 89 -44 15 -56 14 -79 -9z"/>
<path d="M991 3528 c29 -55 92 -148 99 -148 20 0 18 19 -5 50 -14 19 -25 48
-26 64 0 25 -2 27 -8 12 -7 -18 -9 -17 -26 12 -23 38 -53 46 -34 10z"/>
<path d="M940 3525 c0 -10 63 -106 67 -102 2 3 -10 28 -27 56 -29 46 -40 59
-40 46z"/>
<path d="M887 3448 c-4 -12 -3 -25 2 -28 4 -3 14 -16 21 -29 30 -57 83 -122
92 -113 6 6 -4 28 -26 58 -20 27 -45 68 -56 92 -10 23 -21 42 -23 42 -3 0 -7
-10 -10 -22z"/>
<path d="M815 3363 c11 -3 29 -12 40 -22 20 -16 20 -16 1 7 -11 12 -29 21 -40
21 -20 -1 -20 -2 -1 -6z"/>
<path d="M790 3304 c0 -52 26 -102 66 -129 36 -24 54 -13 53 32 0 21 -4 47 -9
58 -5 12 -6 -1 -3 -35 l6 -55 -24 16 c-30 19 -81 117 -73 141 3 10 1 18 -5 18
-6 0 -11 -20 -11 -46z"/>
<path d="M1438 3324 c4 -11 20 -44 35 -74 15 -30 27 -63 27 -72 0 -37 23 -68
54 -73 56 -11 128 -2 140 18 16 25 -11 68 -56 90 -29 14 -40 28 -49 57 -11 36
-16 40 -63 50 -28 6 -61 13 -73 16 -20 5 -22 3 -15 -12z"/>
<path d="M699 3226 c-8 -17 -8 -29 1 -42 10 -17 11 -16 5 9 -12 58 14 23 37
-50 14 -42 29 -78 35 -80 6 -2 18 9 28 24 18 28 18 28 -2 10 -20 -18 -21 -17
-33 35 -17 71 -37 118 -50 118 -6 0 -15 -11 -21 -24z"/>
<path d="M3950 3229 c0 -5 5 -7 10 -4 6 3 10 8 10 11 0 2 -4 4 -10 4 -5 0 -10
-5 -10 -11z"/>
<path d="M4010 3169 c0 -5 5 -7 10 -4 6 3 10 8 10 11 0 2 -4 4 -10 4 -5 0 -10
-5 -10 -11z"/>
<path d="M505 3013 c2 -46 -1 -63 -11 -67 -10 -4 -14 -20 -13 -54 2 -42 5 -48
22 -47 11 1 23 10 27 20 6 16 9 14 29 -13 24 -35 51 -42 51 -14 0 13 -2 14 -9
3 -11 -17 -70 100 -73 147 -1 17 -5 32 -9 32 -4 0 -10 12 -13 28 -2 15 -3 -1
-1 -35z m9 -89 c7 -19 8 -59 1 -52 -11 10 -23 68 -15 68 4 0 11 -7 14 -16z"/>
<path d="M642 3000 c0 -19 2 -27 5 -17 2 9 2 25 0 35 -3 9 -5 1 -5 -18z"/>
<path d="M575 3001 c-16 -51 24 -93 54 -57 10 12 8 13 -8 9 -21 -5 -26 6 -23
50 2 23 -15 22 -23 -2z"/>
<path d="M4185 3000 c-3 -5 -1 -10 4 -10 6 0 11 5 11 10 0 6 -2 10 -4 10 -3 0
-8 -4 -11 -10z"/>
<path d="M1406 2942 c-6 -10 33 -46 42 -37 8 7 -10 37 -25 42 -6 2 -14 0 -17
-5z"/>
<path d="M3941 2932 c-10 -19 -6 -32 11 -32 5 0 6 5 3 10 -3 6 1 10 10 10 9 0
15 5 13 12 -7 20 -26 20 -37 0z"/>
<path d="M4240 2940 c0 -5 5 -10 10 -10 6 0 10 5 10 10 0 6 -4 10 -10 10 -5 0
-10 -4 -10 -10z"/>
<path d="M920 2929 c0 -5 5 -7 10 -4 6 3 10 8 10 11 0 2 -4 4 -10 4 -5 0 -10
-5 -10 -11z"/>
<path d="M2655 2900 c-24 -27 -13 -68 22 -76 51 -13 82 38 47 77 -22 24 -46
24 -69 -1z"/>
<path d="M2820 2890 c-22 -22 -18 -46 10 -55 45 -14 72 43 30 65 -15 8 -24 6
-40 -10z m40 -20 c0 -11 -6 -20 -14 -20 -18 0 -29 16 -21 30 11 18 35 11 35
-10z"/>
<path d="M1366 2893 c-11 -11 -6 -23 9 -23 8 0 15 4 15 9 0 13 -16 22 -24 14z"/>
<path d="M2518 2889 c-24 -14 -23 -35 4 -53 39 -27 80 18 46 52 -14 14 -27 15
-50 1z m42 -23 c0 -8 -5 -18 -11 -22 -14 -8 -33 11 -25 25 10 16 36 13 36 -3z"/>
<path d="M2930 2885 c-11 -13 -11 -19 3 -32 21 -21 49 -9 45 19 -4 28 -30 35
-48 13z m30 -15 c0 -5 -4 -10 -10 -10 -5 0 -10 5 -10 10 0 6 5 10 10 10 6 0
10 -4 10 -10z"/>
<path d="M3997 2893 c-12 -11 -8 -23 8 -23 8 0 15 7 15 15 0 16 -12 20 -23 8z"/>
<path d="M1410 2882 c0 -5 30 -12 68 -16 121 -10 816 -18 862 -8 31 6 -95 11
-395 16 -242 3 -461 9 -487 12 -29 4 -48 2 -48 -4z"/>
<path d="M2404 2875 c-4 -9 0 -23 8 -31 20 -20 50 -7 46 20 -4 26 -45 35 -54
11z m36 -15 c0 -5 -4 -10 -10 -10 -5 0 -10 5 -10 10 0 6 5 10 10 10 6 0 10 -4
10 -10z"/>
<path d="M3825 2880 c-55 -4 -264 -9 -465 -10 -274 -2 -349 -5 -300 -12 66 -9
670 -3 810 8 73 6 76 6 77 -16 2 -27 8 -34 23 -25 8 5 8 10 0 20 -6 7 -8 20
-4 29 5 12 1 16 -17 14 -13 -1 -69 -5 -124 -8z"/>
<path d="M4300 2879 c0 -5 5 -7 10 -4 6 3 10 8 10 11 0 2 -4 4 -10 4 -5 0 -10
-5 -10 -11z"/>
<path d="M865 2870 c3 -5 8 -10 11 -10 2 0 4 5 4 10 0 6 -5 10 -11 10 -5 0 -7
-4 -4 -10z"/>
<path d="M1416 2844 c-4 -9 -4 -19 -2 -21 8 -8 26 8 26 23 0 19 -16 18 -24 -2z"/>
<path d="M284 2778 c4 -42 3 -68 -3 -68 -17 0 -23 -41 -11 -71 14 -34 36 -38
45 -9 6 19 8 18 29 -12 22 -34 46 -43 54 -20 2 7 -2 10 -10 7 -20 -8 -53 55
-79 150 -12 44 -24 82 -26 85 -3 3 -3 -25 1 -62z m16 -105 c0 -22 -2 -25 -10
-13 -13 20 -13 40 0 40 6 0 10 -12 10 -27z"/>
<path d="M372 2778 c-13 -13 -15 -53 -4 -79 5 -13 12 -14 31 -7 l25 9 -23 16
c-18 12 -22 22 -17 44 6 32 5 34 -12 17z"/>
<path d="M2585 2718 c-8 -24 -35 -149 -35 -164 0 -26 18 -14 44 31 31 53 71
68 169 63 l62 -3 8 -145 c4 -80 6 -212 5 -295 l-3 -150 -52 -3 c-38 -2 -53 -7
-53 -18 0 -11 23 -14 125 -16 69 -1 135 -2 148 -2 13 -1 22 5 22 14 0 10 -13
16 -42 18 -24 2 -43 4 -44 5 -4 11 -8 558 -4 574 5 21 11 23 85 23 101 0 124
-10 158 -65 15 -24 31 -45 36 -45 5 0 5 21 1 48 -4 26 -10 65 -14 86 -7 44
-26 58 -36 26 -7 -21 -10 -21 -267 -18 -256 3 -260 3 -278 26 -21 25 -29 27
-35 10z"/>
<path d="M3272 2699 c2 -8 23 -19 46 -24 23 -6 46 -15 52 -21 7 -7 9 -109 8
-305 -3 -285 -4 -294 -23 -297 -50 -7 -66 -14 -63 -24 5 -14 238 -20 444 -11
l131 6 7 66 c3 36 9 76 12 89 11 38 -14 25 -37 -20 -12 -24 -35 -60 -51 -80
l-30 -38 -133 0 c-101 0 -135 3 -144 14 -8 9 -11 57 -9 147 l3 134 90 0 90 0
3 -48 c2 -31 8 -50 18 -54 29 -11 34 12 26 137 -6 107 -9 125 -24 128 -15 3
-18 -4 -18 -46 0 -31 -5 -54 -14 -61 -8 -7 -50 -13 -93 -14 l-78 -2 -3 139
c-1 80 2 144 7 149 14 14 211 10 229 -5 8 -7 28 -36 44 -66 17 -29 33 -51 35
-48 3 3 7 39 9 80 l3 76 -172 0 c-95 0 -216 3 -271 7 -82 5 -98 4 -94 -8z"/>
<path d="M1120 2690 c0 -6 10 -15 23 -20 43 -18 68 -49 184 -225 l66 -100 4
-133 c6 -151 2 -162 -59 -162 -32 0 -39 -3 -36 -17 4 -19 -2 -19 188 -15 81 2
100 5 100 17 0 10 -11 15 -35 15 -52 0 -57 23 -49 209 7 154 8 157 38 198 17
23 56 76 86 118 47 64 61 77 99 88 80 24 57 33 -84 33 -138 -1 -171 -11 -99
-32 64 -18 64 -30 6 -148 -29 -59 -58 -106 -65 -106 -13 0 -167 221 -167 240
0 6 12 16 26 22 23 11 24 13 7 19 -29 12 -233 11 -233 -1z"/>
<path d="M2031 2673 c-84 -34 -162 -112 -191 -191 -18 -46 -21 -72 -17 -137 6
-115 46 -198 120 -254 65 -50 149 -81 214 -81 102 0 241 98 299 211 63 126 29
291 -82 388 -103 91 -223 113 -343 64z m153 -7 c56 -23 111 -81 142 -148 24
-53 29 -79 32 -160 6 -142 -31 -242 -106 -293 -122 -83 -270 43 -303 257 -14
95 -9 138 26 216 28 63 60 99 110 125 38 20 57 21 99 3z"/>
<path d="M570 2580 c0 -5 5 -10 10 -10 6 0 10 5 10 10 0 6 -4 10 -10 10 -5 0
-10 -4 -10 -10z"/>
<path d="M515 2520 c3 -5 8 -10 11 -10 2 0 4 5 4 10 0 6 -5 10 -11 10 -5 0 -7
-4 -4 -10z"/>
<path d="M4550 2369 c0 -5 5 -7 10 -4 6 3 10 8 10 11 0 2 -4 4 -10 4 -5 0 -10
-5 -10 -11z"/>
<path d="M705 2290 c-3 -5 -1 -10 4 -10 6 0 11 5 11 10 0 6 -2 10 -4 10 -3 0
-8 -4 -11 -10z"/>
<path d="M765 2230 c3 -5 8 -10 11 -10 2 0 4 5 4 10 0 6 -5 10 -11 10 -5 0 -7
-4 -4 -10z"/>
<path d="M4375 2200 c-3 -5 -1 -10 4 -10 6 0 11 5 11 10 0 6 -2 10 -4 10 -3 0
-8 -4 -11 -10z"/>
<path d="M4200 2019 c0 -5 5 -7 10 -4 6 3 10 8 10 11 0 2 -4 4 -10 4 -5 0 -10
-5 -10 -11z"/>
<path d="M1050 1940 c0 -5 5 -10 10 -10 6 0 10 5 10 10 0 6 -4 10 -10 10 -5 0
-10 -4 -10 -10z"/>
<path d="M1110 1880 c0 -5 5 -10 10 -10 6 0 10 5 10 10 0 6 -4 10 -10 10 -5 0
-10 -4 -10 -10z"/>
<path d="M4025 1850 c-3 -5 -1 -10 4 -10 6 0 11 5 11 10 0 6 -2 10 -4 10 -3 0
-8 -4 -11 -10z"/>
<path d="M2194 1649 c-6 -10 1 -13 58 -29 26 -7 53 -19 59 -26 7 -9 10 -79 7
-226 -4 -198 -6 -216 -27 -261 -34 -69 -64 -87 -148 -87 -96 0 -149 28 -183
95 -21 42 -25 70 -32 195 -5 80 -7 181 -6 225 l3 80 53 3 c36 2 52 7 49 15 -4
13 -259 18 -279 6 -19 -12 3 -29 37 -29 l34 0 3 -207 c2 -131 -1 -211 -7 -215
-7 -5 -6 -11 1 -15 6 -5 17 -30 24 -57 27 -99 100 -146 227 -146 110 0 155 15
212 69 69 65 80 109 92 351 6 107 12 200 14 207 2 7 22 17 44 23 39 10 56 29
29 31 -99 5 -260 4 -264 -2z"/>
<path d="M2553 1642 c-44 -6 -26 -31 25 -34 l47 -3 0 -305 0 -305 -37 -3 c-21
-2 -38 -7 -38 -13 0 -5 61 -9 146 -9 138 0 183 11 93 23 -23 3 -44 9 -48 14
-3 4 -4 143 -1 308 l5 300 43 3 c29 2 42 8 42 18 0 12 -21 14 -127 12 -71 -2
-138 -4 -150 -6z"/>
<path d="M3940 1595 c-19 -19 -29 -35 -24 -35 13 0 69 58 63 65 -3 2 -21 -11
-39 -30z"/>
<path d="M1405 1590 c3 -5 8 -10 11 -10 2 0 4 5 4 10 0 6 -5 10 -11 10 -5 0
-7 -4 -4 -10z"/>
<path d="M1460 1530 c0 -5 5 -10 10 -10 6 0 10 5 10 10 0 6 -4 10 -10 10 -5 0
-10 -4 -10 -10z"/>
<path d="M1580 1420 c0 -5 5 -10 11 -10 5 0 7 5 4 10 -3 6 -8 10 -11 10 -2 0
-4 -4 -4 -10z"/>
<path d="M1755 1240 c3 -5 8 -10 11 -10 2 0 4 5 4 10 0 6 -5 10 -11 10 -5 0
-7 -4 -4 -10z"/>
<path d="M2045 950 c-3 -5 -1 -10 4 -10 6 0 11 5 11 10 0 6 -2 10 -4 10 -3 0
-8 -4 -11 -10z"/>
<path d="M2105 890 c3 -5 8 -10 11 -10 2 0 4 5 4 10 0 6 -5 10 -11 10 -5 0 -7
-4 -4 -10z"/>
<path d="M3035 860 c-3 -5 -1 -10 4 -10 6 0 11 5 11 10 0 6 -2 10 -4 10 -3 0
-8 -4 -11 -10z"/>
<path d="M3581 789 c-25 -27 -27 -76 -5 -108 16 -22 15 -24 -17 -50 -36 -31
-33 -51 10 -51 35 0 51 17 51 52 0 15 5 28 10 28 6 0 1 9 -10 20 -26 26 -35
66 -21 96 14 31 48 32 54 2 5 -20 5 -20 4 2 -3 35 -47 40 -76 9z m19 -155 c0
-16 -23 -44 -35 -44 -19 0 -19 9 2 32 16 17 33 24 33 12z"/>
<path d="M3492 788 c-44 -57 -69 -182 -37 -194 11 -4 25 2 38 17 l22 23 -22
-18 -23 -19 0 36 c0 20 11 66 25 102 22 60 21 82 -3 53z"/>
<path d="M3386 743 c-34 -107 -18 -147 33 -80 l25 32 -28 -25 -29 -25 7 40 c4
22 14 53 22 69 17 36 17 36 0 36 -8 0 -21 -20 -30 -47z"/>
<path d="M3716 747 c-17 -46 -25 -141 -12 -154 4 -4 14 1 22 11 17 24 18 40 3
30 -13 -8 -4 60 17 118 19 56 -8 51 -30 -5z"/>
<path d="M3799 778 c0 -2 -2 -12 -3 -23 -1 -11 -7 -29 -14 -40 -15 -26 -16
-10 -1 17 6 12 7 18 1 14 -6 -3 -15 -20 -21 -36 -7 -21 -7 -29 0 -24 7 4 9 -4
7 -22 -4 -37 15 -41 37 -8 9 14 12 23 6 20 -15 -10 -14 5 4 47 8 20 15 41 15
47 0 8 -28 15 -31 8z"/>
<path d="M3839 713 c-22 -26 -22 -26 -1 -9 l22 19 -15 -43 c-19 -54 -19 -86 0
-94 12 -4 15 3 15 32 1 20 7 55 15 77 18 49 18 45 2 45 -8 0 -24 -12 -38 -27z"/>
<path d="M2860 679 c0 -5 5 -7 10 -4 6 3 10 8 10 11 0 2 -4 4 -10 4 -5 0 -10
-5 -10 -11z"/>
<path d="M3520 660 c-6 -11 -8 -20 -6 -20 3 0 10 9 16 20 6 11 8 20 6 20 -3 0
-10 -9 -16 -20z"/>
<path d="M3879 603 c-13 -16 -12 -17 4 -4 16 13 21 21 13 21 -2 0 -10 -8 -17
-17z"/>
<path d="M2390 600 c0 -5 5 -10 10 -10 6 0 10 5 10 10 0 6 -4 10 -10 10 -5 0
-10 -4 -10 -10z"/>
<path d="M2450 540 c0 -5 5 -10 10 -10 6 0 10 5 10 10 0 6 -4 10 -10 10 -5 0
-10 -4 -10 -10z"/>
<path d="M2685 510 c-3 -5 -1 -10 4 -10 6 0 11 5 11 10 0 6 -2 10 -4 10 -3 0
-8 -4 -11 -10z"/>
</g>
</svg>
